# xmcd CD database file
#
# Track frame offsets:
#	150
#	16306
#	35428
#	49118
#	63244
#	80866
#	96104
#	111870
#	128464
#	148833
#	166247
#	179698
#	199345
#	214725
#	234161
#	248743
#	263266
#
# Disc length: 3722 seconds
#
# Revision: 0
# Processed by: cddbd v1.5.2PL0 Copyright (c) Steve Scherf et al.
# Submitted via: CDex 1.70beta2
#
DISCID=e60e8811
DTITLE=Various Artist - New Country Roads
DYEAR=2008
DGENRE=Country
TTITLE0=Bomshel - Bomshel Stomp
TTITLE1=Rodney Atkins - Honesty
TTITLE2=Blue County - Good Little Girls
TTITLE3=The Desert Rose Band - Leave this town
TTITLE4=Tim McGraw - Unbroken
TTITLE5=Chad Brock - Yes!
TTITLE6=Jeff Carson - Shine On
TTITLE7=Sawyer Brown - Can You hear me now
TTITLE8=Jo Dee Messina - It gets better
TTITLE9=Dwight Yokam - Two doors down
TTITLE10=Trick Pony - On a mission
TTITLE11=Travis Tritt - Foolish pride
TTITLE12=Blake Shelton - Some beach
TTITLE13=Clay Walker - You deliver me
TTITLE14=Little Texas - Bad for us
TTITLE15=Tracy Lawrence - Live don't have to be so hard
TTITLE16=Blue County - Nothin' but cowboy boots
EXTD=YEAR: 2008
EXTT0=
EXTT1=
EXTT2=
EXTT3=
EXTT4=
EXTT5=
EXTT6=
EXTT7=
EXTT8=
EXTT9=
EXTT10=
EXTT11=
EXTT12=
EXTT13=
EXTT14=
EXTT15=
EXTT16=
PLAYORDER=
